<?xml version="1.0" encoding="UTF-8" standalone="no"?>
<svg
   xmlns:dc="http://purl.org/dc/elements/1.1/"
   xmlns:cc="http://creativecommons.org/ns#"
   xmlns:rdf="http://www.w3.org/1999/02/22-rdf-syntax-ns#"
   xmlns:svg="http://www.w3.org/2000/svg"
   xmlns="http://www.w3.org/2000/svg"
   xmlns:sodipodi="http://sodipodi.sourceforge.net/DTD/sodipodi-0.dtd"
   xmlns:inkscape="http://www.inkscape.org/namespaces/inkscape"
   version="1.1"
   id="svg2"
   xml:space="preserve"
   width="1333.3333"
   height="2666.6667"
   viewBox="0 0 1333.3333 2666.6667"
   sodipodi:docname="dijlah.ai"><metadata
     id="metadata8"><rdf:RDF><cc:Work
         rdf:about=""><dc:format>image/svg+xml</dc:format><dc:type
           rdf:resource="http://purl.org/dc/dcmitype/StillImage" /></cc:Work></rdf:RDF></metadata><defs
     id="defs6"><clipPath
       clipPathUnits="userSpaceOnUse"
       id="clipPath18"><path
         d="M 0,2000 H 1000 V 0 H 0 Z"
         id="path16" /></clipPath></defs><sodipodi:namedview
     pagecolor="#ffffff"
     bordercolor="#666666"
     borderopacity="1"
     objecttolerance="10"
     gridtolerance="10"
     guidetolerance="10"
     inkscape:pageopacity="0"
     inkscape:pageshadow="2"
     inkscape:window-width="640"
     inkscape:window-height="480"
     id="namedview4" /><g
     id="g10"
     inkscape:groupmode="layer"
     inkscape:label="dijlah"
     transform="matrix(1.3333333,0,0,-1.3333333,0,2666.6667)"><g
       id="g12"><g
         id="g14"
         clip-path="url(#clipPath18)"><g
           id="g20"
           transform="translate(266.7725,1043.1836)"><path
             d="m 0,0 c -14.226,22.645 -29.555,47.653 -50.661,63.305 0.469,0.938 0.938,1.876 1.407,2.813 24.39,16.411 48.787,28.732 73.177,45.143 22.193,12.982 45.174,21.061 73.177,30.823 31.279,4.434 45.375,-0.564 60.512,-9.847 39.66,-24.32 82.376,-112.362 60.513,-181.474 -21.434,-67.749 -95.031,-120.614 -154.799,-150.525 0.938,1.407 1.877,2.814 2.815,4.221 9.38,7.032 18.764,14.068 28.145,21.102 13.986,11.228 27.975,33.181 35.181,50.643 26.434,64.048 -3.569,209.229 -66.141,211.016 -0.469,-0.938 -0.938,-1.876 -1.407,-2.813 -0.938,-2.814 -1.877,-5.628 -2.815,-8.441 18.623,-33.971 45.39,-57.884 53.476,-104.101 9.018,-51.54 -18.932,-88.239 -37.996,-113.949 -56.384,-76.041 -141.386,-121.293 -225.161,-170.22 -28.029,-16.37 -62.045,-41.556 -95.693,-49.237 0.469,0.938 0.938,1.876 1.407,2.813 29.55,17.349 59.108,34.703 88.657,52.051 C -55.48,-247.258 98.815,-157.293 0,0 Z M 70.362,341.846 C 64.116,320.664 3.259,295.395 28.145,275.728 c 10.947,-23.63 32.684,-41.776 45.032,-66.119 -6.219,-22.783 -38.11,-52.291 -56.29,-64.711 -0.938,0.469 -1.877,0.938 -2.815,1.407 -8.46,26.418 -39.858,67.094 -64.733,77.372 10.787,10.784 21.578,21.572 32.367,32.356 9.849,9.846 19.702,19.696 29.552,29.542 -9.103,29.092 -38.38,59.33 -63.327,73.153 v 4.22 c 20.638,19.224 41.282,38.453 61.92,57.677 13.237,-3.129 65.375,-62.29 60.511,-78.779 z M 298.338,-52.051 c -26.097,-34.501 -82.69,-91.534 -123.838,-108.321 3.283,4.22 6.567,8.441 9.85,12.661 18.762,18.755 37.529,37.516 56.291,56.271 20.995,26.232 43.473,50.823 60.511,81.593 41.166,74.344 23.681,196.028 -14.072,260.253 C 208.396,384.26 92.888,482.935 12.665,614.76 -10.498,652.823 -56.744,718.021 -36.589,784.98 -14.595,858.047 50.872,886.179 92.878,938.318 94.624,930.663 61.896,891.793 56.29,880.641 34.54,837.371 30.44,763.345 50.661,716.048 73.619,662.349 111.792,619.273 144.947,575.371 210.595,488.441 281.294,410.189 337.741,313.71 372.092,254.999 403.494,158.645 372.922,71.746 355.941,23.479 326.467,-14.862 298.338,-52.051 Z m 45.032,-151.931 c -22.479,-3.675 -33.974,-6.902 -47.847,-16.881 -55.981,-40.275 -44.893,-134.671 -38.376,-225.294 44.089,34.228 75.908,61.642 119.998,95.871 17.934,13.249 51.486,29.394 61.918,49.236 20.374,62.029 -42.747,97.445 -95.693,97.068 z m 215.31,-127.365 c -13.485,-23.734 -87.651,-56.281 -114.268,-71.972 -52.513,-30.959 -115.835,-75.692 -152.878,-122.836 94.341,-204.589 -157.017,-345.75 -285.905,-400.908 -22.119,-9.467 -142.577,-61.391 -161.835,-56.272 32.66,5.103 64.908,23.093 92.879,35.17 112.203,48.443 226.364,102.852 289.895,199.762 28.896,44.078 42.978,148.463 0,191.321 -109.953,-43.392 -266.536,-20.085 -235.012,132.236 1.576,27.028 14.073,43.144 21.109,64.712 28.217,57.767 74.232,94.105 121.024,130.83 33.302,29.539 66.613,59.087 99.915,88.626 41.28,33.097 74.922,60.714 113.988,105.677 34.407,39.6 68.483,95.891 61.919,170.051 C 427.384,86.963 390.902,-0.573 372.922,-28.135 295.019,-147.558 141.79,-223.195 84.435,-350.286 c -20.18,-44.717 -24.2,-105.094 15.48,-132.237 24.3,-16.623 84.375,-22.206 106.951,1.407 -3.752,29.07 -7.506,58.149 -11.258,87.22 -16.112,103.914 42.209,203.296 92.879,243.372 24.051,19.022 50.096,50.467 101.323,40.795 84.945,-16.038 56.65,-110.591 121.023,-135.049 31.939,-12.135 46.254,20.049 77.399,21.101 0.469,-0.937 0.939,-1.876 1.408,-2.813 3.501,-22.039 -8.577,-45.822 -14.073,-64.712 -5.629,-21.569 -11.258,-18.576 -16.887,-40.145 z M 86.104,-611.458 c 53.524,0 96.914,-43.385 96.914,-96.903 0,-53.519 -43.39,-96.904 -96.914,-96.904 -53.524,0 -96.914,43.385 -96.914,96.904 0,53.518 43.39,96.903 96.914,96.903 z m 569.676,-13.149 c -20.679,82.067 -63.439,139.086 -167.463,140.677 -33.318,-6.592 -70.543,-17.007 -90.064,-43.61 -22.562,-30.745 -3.909,-78.517 9.851,-105.508 32.533,-63.817 66.627,-120.699 37.996,-216.643 79.574,7.833 186.275,90.135 211.087,153.338 8.046,20.493 3.431,52.548 -1.407,71.746 z m 32.367,-46.424 C 645.254,-784.296 564.901,-881.404 446.1,-918.623 c -84.977,-26.622 -179.837,-1.558 -249.084,19.694 -19.572,6.007 -48.376,9.867 -63.327,28.136 83.349,-0.623 230.539,-19.934 288.488,14.067 26.909,83.157 -41.75,138.134 -66.142,196.95 -33.594,81.004 26.992,185.225 71.771,216.642 21.593,15.152 43.086,23.134 73.176,29.542 138.353,-1.599 243.716,-108.11 187.165,-257.439 z"
             style="fill:none;stroke:#231f20;stroke-width:5;stroke-linecap:butt;stroke-linejoin:miter;stroke-miterlimit:10;stroke-dasharray:none;stroke-opacity:1"
             id="path22" /></g></g></g></g></svg>
